<?xml version="1.0" encoding="UTF-8"?><!DOCTYPE svg PUBLIC "-//W3C//DTD SVG 1.0//EN" "http://www.w3.org/TR/2001/REC-SVG-20010904/DTD/svg10.dtd" []><svg xmlns="http://www.w3.org/2000/svg" xmlns:xlink="http://www.w3.org/1999/xlink" height="499.3" preserveAspectRatio="xMidYMid meet" version="1.0" viewBox="0.0 0.0 499.3 499.3" width="499.3" zoomAndPan="magnify"><g id="change1_1"><path d="m249.62736,499.25498C111.98229,499.25498,0,387.27243,0,249.62736S111.98229,0,249.62736,0s249.62762,111.98229,249.62762,249.62736h-10.77691c0-131.70251-107.1482-238.85045-238.85071-238.85045S10.77691,117.92485,10.77691,249.62736s107.14794,238.85071,238.85045,238.85071v10.77691Z" fill="#1e1a1b"/></g><g id="change1_2"><path d="m249.62736,477.70116c-125.76021,0-228.07353-102.31332-228.07353-228.0738S123.86715,21.55383,249.62736,21.55383s228.0738,102.31332,228.0738,228.07353h-10.77691c0-119.81791-97.47897-217.29662-217.29688-217.29662S32.33074,129.80945,32.33074,249.62736s97.47871,217.29688,217.29662,217.29688v10.77691Z" fill="#1e1a1b"/></g><g id="change1_3"><path d="m249.62736,456.14733c-113.87535,0-206.51971-92.64462-206.51971-206.51997S135.75201,43.10765,249.62736,43.10765s206.51997,92.64436,206.51997,206.51971h-10.77691c0-107.93305-87.80974-195.74279-195.74306-195.74279S53.88457,141.69431,53.88457,249.62736s87.80974,195.74306,195.74279,195.74306v10.77691Z" fill="#1e1a1b"/></g><g id="change1_4"><path d="m249.62736,434.5935c-101.99049,0-184.96588-82.97539-184.96588-184.96614S147.63687,64.66148,249.62736,64.66148s184.96614,82.97539,184.96614,184.96588h-10.77691c0-96.04819-78.14104-174.18897-174.18923-174.18897S75.43839,153.57917,75.43839,249.62736s78.14078,174.18923,174.18897,174.18923v10.77691Z" fill="#1e1a1b"/></g><g id="change1_5"><path d="m249.62736,413.03968c-90.10563,0-163.41205-73.30669-163.41205-163.41232S159.52173,86.21531,249.62736,86.21531s163.41232,73.30643,163.41232,163.41205h-10.77691c0-84.16333-68.47181-152.63514-152.6354-152.63514S96.99222,165.46403,96.99222,249.62736s68.47181,152.6354,152.63514,152.6354v10.77691Z" fill="#1e1a1b"/></g><g id="change1_6"><path d="m249.62736,391.48585c-78.22076,0-141.85823-63.63746-141.85823-141.85849s63.63746-141.85823,141.85823-141.85823,141.85849,63.63746,141.85849,141.85823h-10.77691c0-72.27846-58.80311-131.08131-131.08158-131.08131s-131.08131,58.80285-131.08131,131.08131,58.80285,131.08158,131.08131,131.08158v10.77691Z" fill="#1e1a1b"/></g><g id="change1_7"><path d="m249.62736,369.93202c-66.33616,0-120.3044-53.96824-120.3044-120.30466s53.96824-120.3044,120.3044-120.3044,120.30466,53.96824,120.30466,120.3044h-10.77691c0-60.3936-49.13388-109.52749-109.52775-109.52749s-109.52749,49.13388-109.52749,109.52749,49.13388,109.52775,109.52749,109.52775v10.77691Z" fill="#1e1a1b"/></g><g id="change1_8"><path d="m249.62736,348.3782c-54.4513,0-98.75057-44.29953-98.75057-98.75084s44.29927-98.75057,98.75057-98.75057,98.75084,44.29927,98.75084,98.75057h-10.77691c0-48.50874-39.46518-87.97366-87.97392-87.97366s-87.97366,39.46492-87.97366,87.97366,39.46492,87.97392,87.97366,87.97392v10.77691Z" fill="#1e1a1b"/></g><g id="change1_9"><path d="m249.62736,326.82437c-42.56644,0-77.19675-34.63031-77.19675-77.19701s34.63031-77.19675,77.19675-77.19675,77.19701,34.63031,77.19701,77.19675h-10.77691c0-36.62414-29.79596-66.41983-66.4201-66.41983s-66.41983,29.79569-66.41983,66.41983,29.79569,66.4201,66.41983,66.4201v10.77691Z" fill="#1e1a1b"/></g><g id="change1_10"><path d="m249.62736,305.27107c-30.68184,0-55.64318-24.9616-55.64318-55.64371s24.96134-55.64292,55.64318-55.64292,55.64371,24.96134,55.64371,55.64292h-10.77691c0-24.73928-20.12725-44.86601-44.8668-44.86601s-44.86627,20.12673-44.86627,44.86601,20.12673,44.8668,44.86627,44.8668v10.77691Z" fill="#1e1a1b"/></g></svg>