<?xml version="1.0" encoding="UTF-8"?><!DOCTYPE svg PUBLIC "-//W3C//DTD SVG 1.0//EN" "http://www.w3.org/TR/2001/REC-SVG-20010904/DTD/svg10.dtd" []><svg xmlns="http://www.w3.org/2000/svg" xmlns:xlink="http://www.w3.org/1999/xlink" height="501.8" preserveAspectRatio="xMidYMid meet" version="1.0" viewBox="0.0 0.0 180.6 501.8" width="180.6" zoomAndPan="magnify"><g id="change1_1"><path d="m8.94559,340.71178H0v-160.10611c0-48.24033,18.78604-93.59423,52.89776-127.70748C87.01056,18.78626,132.36469,0,180.60589,0v8.94559c-45.85185,0-88.95945,17.85568-121.38269,50.27805C26.80127,91.64709,8.94559,134.75491,8.94559,180.60567v160.10611Z" fill="#1e1a1b"/></g><g id="change1_2"><path d="m7.25079,358.68046H.04072v-8.94559h7.21007c5.86713,0,10.64038-4.77348,10.64038-10.64082v-158.48839c0-43.46184,16.92511-84.32314,47.65791-115.05659,30.73323-30.73257,71.59431-47.65791,115.05681-47.65791v8.94559c-41.07315,0-79.68771,15.99476-108.73136,45.03776-29.043,29.04387-45.03776,67.65865-45.03776,108.73114v158.48839c0,10.79976-8.78621,19.58641-19.58597,19.58641Z" fill="#1e1a1b"/></g><g id="change1_3"><path d="m7.25079,501.80942H.04072v-8.94559h7.21007c41.07293,0,79.68792-15.9952,108.73114-45.03842,29.04322-29.04366,45.03842-67.65865,45.03842-108.73136v-158.48839c0-10.79954,8.78577-19.58554,19.58554-19.58554v8.94559c-5.86691,0-10.64038,4.77304-10.64038,10.63995v158.48839c0,43.46206-16.92533,84.32358-47.65812,115.05681-30.73279,30.73279-71.59409,47.65856-115.05659,47.65856Z" fill="#1e1a1b"/></g><g id="change1_4"><path d="m7.25079,376.57164H.04072v-8.94559h7.21007c15.73218,0,28.53134-12.79938,28.53134-28.53199v-158.48839c0-38.68336,15.06419-75.05183,42.41784-102.4057,27.35365-27.35343,63.72212-42.41762,102.40592-42.41762v8.94559c-36.29445,0-70.4164,14.13362-96.08047,39.79748-25.66408,25.66429-39.79769,59.78625-39.79769,96.08026v158.48839c0,20.66503-16.81211,37.47758-37.47693,37.47758Z" fill="#1e1a1b"/></g><g id="change1_5"><path d="m7.25079,483.91824H.04072v-8.94559h7.21007c36.29423,0,70.41618-14.13405,96.08026-39.79813,25.66408-25.66451,39.79813-59.78646,39.79813-96.08047v-158.48839c0-20.6646,16.81168-37.47649,37.47671-37.47649v8.94559c-15.73218,0-28.53156,12.79894-28.53156,28.53091v158.48839c0,38.68336-15.06419,75.05183-42.41784,102.40592-27.35365,27.35365-63.72212,42.41827-102.4057,42.41827Z" fill="#1e1a1b"/></g><g id="change1_6"><path d="m7.25079,394.46237H.04072v-8.94559h7.21007c25.59767,0,46.42252-20.82528,46.42252-46.42273v-158.48839c0-33.90466,13.20348-65.78031,37.17755-89.75481,23.97494-23.97429,55.85037-37.17733,89.75503-37.17733v8.94559c-31.51531,0-61.14422,12.27269-83.42959,34.55719-22.2845,22.28493-34.55741,51.91406-34.55741,83.42937v158.48839c0,30.52987-24.8378,55.36832-55.3681,55.36832Z" fill="#1e1a1b"/></g><g id="change1_7"><path d="m7.25079,466.02707H.04072v-8.94559h7.21007c31.51487,0,61.144-12.27291,83.42937-34.55784,22.28493-22.28493,34.55784-51.91384,34.55784-83.42959v-158.48839c0-30.52987,24.83801-55.36767,55.36788-55.36767v8.94559c-25.59745,0-46.42273,20.82485-46.42273,46.42208v158.48839c0,33.90509-13.20305,65.78053-37.17755,89.75503-23.97494,23.9745-55.85037,37.17799-89.75481,37.17799Z" fill="#1e1a1b"/></g><g id="change1_8"><path d="m7.25079,412.35355H.04072v-8.94559h7.21007c35.46251,0,64.31369-28.85118,64.31369-64.31391v-158.48839c0-29.12574,11.34191-56.50835,31.93727-77.10371,20.59536-20.59514,47.97818-31.93727,77.10414-31.93727v8.94559c-26.73661,0-51.87291,10.41177-70.7787,29.31712-18.90579,18.90579-29.31712,44.04209-29.31712,70.77826v158.48839c0,40.39514-32.86414,73.25949-73.25928,73.25949Z" fill="#1e1a1b"/></g><g id="change1_9"><path d="m7.25079,448.1359H.04072v-8.94559h7.21007c26.73661,0,51.87269-10.41221,70.77848-29.31756,18.90579-18.90579,29.31756-44.04209,29.31756-70.7787v-158.48839c0-40.39514,32.86392-73.25884,73.25906-73.25884v8.94559c-35.46272,0-64.31391,28.85075-64.31391,64.31325v158.48839c0,29.12596-11.34191,56.50878-31.93727,77.10414s-47.97775,31.9377-77.10392,31.9377Z" fill="#1e1a1b"/></g><g id="change1_10"><path d="m7.25079,430.24472H.04072v-8.94559h7.21007c45.32778,0,82.20486-36.87709,82.20486-82.20508v-158.48817c0-50.26041,40.88982-91.15045,91.15023-91.15045v8.94559c-45.32799,0-82.20508,36.87687-82.20508,82.20486v158.48817c0,50.26041-40.88938,91.15067-91.15001,91.15067Z" fill="#1e1a1b"/></g></svg>