<?xml version="1.0" encoding="UTF-8"?><!DOCTYPE svg PUBLIC "-//W3C//DTD SVG 1.0//EN" "http://www.w3.org/TR/2001/REC-SVG-20010904/DTD/svg10.dtd" []><svg xmlns="http://www.w3.org/2000/svg" xmlns:xlink="http://www.w3.org/1999/xlink" height="500.3" preserveAspectRatio="xMidYMid meet" version="1.0" viewBox="0.0 0.0 500.1 500.3" width="500.1" zoomAndPan="magnify"><g id="change1_1"><path d="M500.0989 500.30239L0 500.30239 0 0.20403 293.07608 0.20403 293.07608 11.31734 11.11331 11.31734 11.11331 489.18908 488.98559 489.18908 488.98559 0 500.0989 0 500.0989 500.30239z" fill="#1e1a1b"/></g><g id="change1_2"><path d="M477.87228 478.07577L22.22662 478.07577 22.22662 22.43065 292.86933 22.43065 292.86933 33.54396 33.33993 33.54396 33.33993 466.96246 466.75897 466.96246 466.75897 0 477.87228 0 477.87228 478.07577z" fill="#1e1a1b"/></g><g id="change1_3"><path d="M455.64566 455.84915L44.45324 455.84915 44.45324 44.65727 293.07608 44.65727 293.07608 55.77058 55.56654 55.77058 55.56654 444.73584 444.53235 444.73584 444.53235 0 455.64566 0 455.64566 455.84915z" fill="#1e1a1b"/></g><g id="change1_4"><path d="M433.41904 433.62253L66.67985 433.62253 66.67985 66.88389 294.50268 66.88389 294.50268 77.9972 77.79316 77.9972 77.79316 422.50923 422.30573 422.50923 422.30573 0 433.41904 0 433.41904 433.62253z" fill="#1e1a1b"/></g><g id="change1_5"><path d="M411.19243 411.39592L88.90647 411.39592 88.90647 89.1105 294.50268 89.1105 294.50268 100.22381 100.01978 100.22381 100.01978 400.28261 400.07912 400.28261 400.07912 0 411.19243 0 411.19243 411.39592z" fill="#1e1a1b"/></g><g id="change1_6"><path d="M388.96581 389.1693L111.13309 389.1693 111.13309 111.33712 293.07608 111.33712 293.07608 122.45043 122.2464 122.45043 122.2464 378.05599 377.8525 378.05599 377.8525 0 388.96581 0 388.96581 389.1693z" fill="#1e1a1b"/></g><g id="change1_7"><path d="M366.73919 366.94268L133.35971 366.94268 133.35971 133.56374 293.28282 133.56374 293.28282 144.67705 144.47301 144.67705 144.47301 355.82937 355.62588 355.82937 355.62588 0 366.73919 0 366.73919 366.94268z" fill="#1e1a1b"/></g><g id="change1_8"><path d="M344.51257 344.71606L155.58632 344.71606 155.58632 155.79036 292.66258 155.79036 292.66258 166.90367 166.69963 166.90367 166.69963 333.60276 333.39926 333.60276 333.39926 0 344.51257 0 344.51257 344.71606z" fill="#1e1a1b"/></g><g id="change1_9"><path d="M322.28596 322.48945L177.81294 322.48945 177.81294 178.01697 292.66258 178.01697 292.66258 189.13028 188.92625 189.13028 188.92625 311.37614 311.17265 311.37614 311.17265 0 322.28596 0 322.28596 322.48945z" fill="#1e1a1b"/></g><g id="change1_10"><path d="m300.05934,300.26283h-100.01951v-100.01924h88.9062V0h11.11331v300.26283Zm-88.9062-11.11331h77.79289v-77.79262h-77.79289v77.79262Z" fill="#1e1a1b"/></g></svg>